<?xml version="1.0" standalone="no"?>
<!DOCTYPE svg PUBLIC "-//W3C//DTD SVG 20010904//EN"
 "http://www.w3.org/TR/2001/REC-SVG-20010904/DTD/svg10.dtd">
<svg version="1.0" xmlns="http://www.w3.org/2000/svg"
 width="2280.000000pt" height="615.000000pt" viewBox="0 0 2280.000000 615.000000"
 preserveAspectRatio="xMidYMid meet">

<g transform="translate(0.000000,615.000000) scale(0.100000,-0.100000)"
fill="#000000" stroke="none">
<path d="M3005 6139 c-33 -4 -80 -15 -104 -23 -59 -21 -2605 -1312 -2657
-1347 -64 -43 -150 -143 -183 -212 -64 -134 -62 -87 -59 -1522 l3 -1300 22
-65 c41 -120 110 -216 203 -285 25 -18 632 -330 1350 -693 1023 -518 1320
-665 1375 -678 88 -20 206 -14 290 14 65 23 2578 1294 2658 1344 109 69 204
210 232 345 22 103 22 2604 0 2708 -29 137 -113 265 -226 342 -76 52 -2631
1341 -2689 1356 -74 20 -143 25 -215 16z m1394 -1040 c708 -358 1297 -661
1310 -673 53 -48 51 12 51 -1356 0 -1254 0 -1271 -20 -1310 -11 -22 -30 -46
-43 -54 -12 -8 -596 -305 -1296 -660 -1182 -599 -1279 -646 -1325 -646 -46 0
-143 47 -1326 646 -701 356 -1287 655 -1302 665 -61 44 -59 -22 -56 1381 l3
1276 30 37 c26 31 223 134 1320 691 1051 532 1297 654 1329 654 33 0 262 -112
1325 -651z"/>
<path d="M20590 6039 c-897 -103 -1588 -779 -1705 -1667 -17 -131 -20 -410 -5
-532 55 -438 228 -807 524 -1118 668 -699 1793 -799 2601 -230 116 81 352 317
433 433 175 248 285 518 339 830 25 145 25 519 0 669 -70 413 -242 759 -521
1045 -161 165 -308 272 -512 374 -196 99 -448 173 -666 196 -113 13 -379 12
-488 0z m399 -1110 c281 -45 480 -237 557 -537 32 -120 43 -341 25 -476 -16
-114 -60 -253 -108 -336 -60 -103 -172 -209 -273 -259 -122 -60 -202 -74 -385
-68 -168 5 -243 22 -350 82 -245 135 -380 440 -362 815 21 434 218 704 567
775 80 16 243 18 329 4z"/>
<path d="M13205 6020 c-709 -48 -1260 -397 -1553 -985 -278 -560 -277 -1357 4
-1917 91 -182 169 -292 303 -432 355 -367 829 -549 1431 -549 286 0 501 33
725 110 371 129 752 442 1006 827 l59 88 0 604 0 604 -975 0 -975 0 0 -425 0
-425 477 -2 477 -3 -59 -63 c-103 -111 -240 -195 -384 -234 -110 -31 -365 -30
-501 0 -223 50 -384 170 -474 353 -58 117 -82 213 -97 379 -44 501 160 867
526 945 103 22 294 20 387 -4 125 -32 218 -89 282 -171 l30 -40 633 0 c596 0
633 1 633 18 -1 32 -40 196 -67 277 -94 286 -288 547 -538 724 -166 117 -408
220 -634 271 -199 44 -493 65 -716 50z"/>
<path d="M8626 5958 c-22 -54 -1386 -3785 -1386 -3792 0 -3 283 -6 628 -6
l628 0 92 278 c51 153 92 284 92 290 0 9 153 12 639 12 l639 0 94 -287 94
-288 633 -3 c600 -2 633 -1 628 15 -4 15 -1362 3743 -1382 3796 -7 16 -49 17
-697 17 l-689 0 -13 -32z m868 -1787 c92 -282 165 -515 163 -517 -2 -2 -155
-3 -339 -2 l-336 3 164 505 c185 568 173 534 178 529 2 -2 79 -235 170 -518z"/>
<path d="M15485 5978 c-3 -7 -4 -868 -3 -1913 l3 -1900 602 -3 603 -2 2 680 3
681 355 -678 355 -678 658 -3 c392 -1 657 2 657 7 0 5 -185 334 -410 731 -226
397 -410 724 -408 725 2 1 29 12 60 23 413 153 686 486 749 912 15 104 7 348
-15 448 -68 313 -233 559 -486 728 -211 140 -444 215 -755 244 -172 16 -1964
13 -1970 -2z m1777 -1009 c75 -16 119 -41 166 -94 53 -60 72 -119 72 -220 0
-149 -48 -239 -152 -286 -52 -23 -61 -24 -355 -27 l-303 -3 0 320 0 321 260 0
c153 0 281 -5 312 -11z"/>
</g>
</svg>
