<?xml version="1.0" standalone="no"?>
<!DOCTYPE svg PUBLIC "-//W3C//DTD SVG 20010904//EN"
 "http://www.w3.org/TR/2001/REC-SVG-20010904/DTD/svg10.dtd">
<svg version="1.0" xmlns="http://www.w3.org/2000/svg"
 width="626.000000pt" height="268.000000pt" viewBox="0 0 626.000000 268.000000"
 preserveAspectRatio="xMidYMid meet">

<g transform="translate(0.000000,268.000000) scale(0.100000,-0.100000)"
fill="#000000" stroke="none">
<path d="M2750 2370 c0 -21 5 -30 16 -30 24 0 55 -42 42 -58 -13 -15 -4 -118
13 -138 6 -7 9 -23 6 -34 -3 -11 -1 -20 3 -20 5 0 22 -13 38 -30 l30 -29 6 25
c4 14 3 30 -1 37 -10 16 -4 47 13 71 31 45 7 136 -37 136 -10 0 -18 3 -17 8 4
19 -23 62 -40 62 -10 0 -27 7 -38 15 -28 21 -34 18 -34 -15z m80 -160 c0 -5
-5 -10 -11 -10 -5 0 -7 5 -4 10 3 6 8 10 11 10 2 0 4 -4 4 -10z m47 4 c-3 -3
-12 -4 -19 -1 -8 3 -5 6 6 6 11 1 17 -2 13 -5z m-17 -48 c0 -3 -4 -8 -10 -11
-5 -3 -10 -1 -10 4 0 6 5 11 10 11 6 0 10 -2 10 -4z"/>
<path d="M1968 2312 c-7 -10 -30 -28 -50 -40 -20 -13 -39 -28 -41 -35 -3 -7
-16 0 -33 20 -43 48 -88 49 -108 1 -12 -28 -19 -32 -52 -32 -35 -1 -39 -4 -42
-28 -2 -15 3 -37 11 -49 14 -20 24 -20 233 -21 l217 0 15 27 c13 25 12 32 -17
91 -17 35 -40 68 -50 74 -30 16 -68 12 -83 -8z m-119 -82 c11 -24 11 -24 -3
-6 -9 11 -16 24 -16 30 0 12 5 7 19 -24z"/>
<path d="M5226 2294 c-33 -32 -11 -130 35 -155 34 -18 79 6 79 43 0 37 -23 81
-56 107 -32 25 -38 26 -58 5z m44 -54 c6 -11 8 -20 6 -20 -3 0 -10 9 -16 20
-6 11 -8 20 -6 20 3 0 10 -9 16 -20z"/>
<path d="M3153 2193 c26 -2 68 -2 95 0 26 2 4 3 -48 3 -52 0 -74 -1 -47 -3z"/>
<path d="M3096 2038 c-4 -18 -26 -54 -50 -80 l-44 -47 -23 62 c-13 35 -24 55
-27 45 -2 -9 1 -26 7 -37 8 -14 7 -29 -5 -57 -8 -20 -13 -47 -10 -59 5 -18 -6
-33 -49 -74 -47 -44 -59 -51 -95 -51 l-41 0 7 63 c3 34 15 88 25 119 11 32 19
64 19 71 0 21 -46 67 -67 67 -16 0 -18 -11 -21 -81 -2 -44 -10 -102 -18 -127
-7 -26 -14 -75 -14 -110 0 -53 -4 -67 -25 -90 -29 -31 -31 -63 -7 -112 13 -26
24 -35 44 -36 30 -1 41 15 27 37 -14 23 -11 69 5 69 8 0 17 -4 20 -9 8 -12 45
-21 50 -12 6 10 -35 56 -56 64 -11 4 -15 12 -12 22 5 13 11 10 33 -15 37 -45
91 -50 151 -16 72 41 104 32 55 -16 -26 -27 -75 -123 -75 -150 0 -28 -11 -47
-25 -42 -7 3 -16 1 -20 -5 -3 -6 -16 -11 -28 -11 -29 -1 -138 -49 -112 -50 11
0 33 7 49 15 15 8 32 13 36 10 5 -3 11 -1 15 5 3 5 11 10 17 10 7 0 7 -4 -1
-13 -6 -8 -8 -17 -4 -20 9 -9 -87 -48 -99 -40 -6 3 -8 1 -5 -4 4 -6 -6 -16
-23 -22 -28 -9 -30 -8 -30 14 0 13 6 25 13 28 6 2 8 8 4 13 -4 4 -20 1 -36 -9
-24 -14 -33 -15 -79 -3 -28 8 -78 24 -112 37 -57 22 -64 28 -85 74 -23 52 -86
141 -114 161 -9 7 -29 24 -46 38 -42 37 -138 83 -215 102 -49 13 -89 15 -162
11 l-98 -6 0 33 c0 28 -5 36 -29 46 -16 6 -38 9 -49 6 -11 -4 -23 -2 -27 4
-18 30 -95 0 -132 -52 -32 -46 -22 -55 69 -63 l80 -7 -51 -29 c-28 -16 -83
-62 -122 -102 -40 -39 -76 -72 -82 -72 -6 0 -12 -6 -15 -14 -3 -9 0 -11 8 -6
9 5 11 4 6 -4 -4 -6 -12 -9 -17 -6 -5 4 -9 1 -9 -5 0 -6 -5 -8 -12 -4 -7 4 -8
3 -4 -5 4 -6 12 -9 17 -6 5 4 9 1 9 -5 0 -6 -7 -13 -16 -17 -8 -3 -13 -12 -10
-20 3 -8 1 -11 -5 -8 -5 4 -7 16 -3 27 4 13 2 18 -4 14 -6 -4 -16 2 -21 13 -6
11 -18 26 -26 35 -9 8 -18 37 -20 63 -5 47 -4 48 9 18 8 -16 30 -46 50 -64 37
-35 44 -35 25 0 -8 15 -6 25 9 44 17 21 21 22 26 9 8 -20 8 -24 -1 -23 -5 1
-15 1 -23 0 -13 -1 -13 -2 0 -11 9 -5 19 -5 27 1 7 6 17 8 22 4 6 -3 1 10 -12
29 -22 36 -44 43 -39 12 2 -9 -2 -16 -8 -16 -7 0 -9 12 -7 29 3 15 1 35 -4 42
-5 8 -9 10 -9 5 0 -5 -7 -3 -15 4 -20 17 -19 1 1 -21 11 -12 13 -23 6 -34 -7
-13 -11 -7 -21 32 -7 26 -14 53 -16 60 -6 18 21 37 31 22 4 -7 2 -15 -5 -17
-16 -5 5 -32 25 -32 8 0 14 -5 14 -12 0 -6 2 -9 5 -6 14 14 -68 136 -99 147
-6 2 -1 -8 12 -22 17 -18 20 -27 12 -32 -12 -8 -10 -77 4 -120 3 -11 0 -7 -7
9 -10 20 -16 25 -19 15 -13 -33 -29 46 -21 100 10 74 10 74 -4 79 -16 5 -19
-183 -3 -193 6 -4 10 -21 9 -38 -3 -39 17 -87 65 -158 l37 -54 -37 40 c-48 53
-86 137 -79 176 3 17 2 28 -3 25 -13 -8 -98 17 -177 52 -99 43 -170 62 -232
62 -61 0 -73 -12 -98 -98 -11 -36 -32 -69 -70 -110 l-54 -59 31 -1 c37 -1 91
25 83 39 -4 5 -2 8 4 7 5 -2 23 12 38 31 24 28 39 35 82 41 28 4 54 3 57 -2 4
-5 26 -8 50 -7 43 3 44 3 83 -58 22 -35 59 -74 86 -93 32 -22 53 -46 66 -77
10 -24 37 -61 59 -80 46 -42 50 -53 16 -53 -27 0 -44 -17 -55 -56 -5 -20 -16
-30 -40 -36 -17 -5 -34 -15 -38 -23 -3 -8 -17 -15 -33 -15 -22 0 -33 -10 -57
-48 -28 -45 -32 -48 -65 -44 -27 3 -41 -1 -58 -18 l-22 -22 -29 28 c-37 35
-76 148 -59 169 9 11 17 12 31 4 11 -5 30 -7 42 -3 12 5 24 8 27 9 3 0 21 17
42 38 28 29 35 42 30 61 -7 24 -62 76 -80 76 -5 0 -13 11 -16 24 -7 27 -35 41
-64 31 -22 -6 -42 -45 -42 -79 0 -23 -2 -23 -51 -14 -69 13 -102 4 -93 -24 4
-13 1 -24 -7 -29 -10 -6 -10 -9 -2 -9 6 0 15 5 18 10 7 12 46 3 56 -13 4 -5
-2 -24 -12 -42 -16 -26 -17 -38 -9 -59 13 -36 13 -39 -5 -32 -8 3 -15 1 -15
-4 0 -9 22 -14 43 -11 4 0 7 -4 7 -10 0 -6 -14 -9 -32 -7 -18 2 -31 6 -28 9 3
4 -4 17 -15 30 -18 20 -18 22 -2 16 10 -4 16 -3 12 2 -3 5 -2 11 2 14 5 2 1 2
-7 -1 -8 -3 -23 -5 -32 -6 -14 0 -12 -5 10 -23 30 -25 23 -31 -11 -9 -12 8
-51 24 -86 35 -61 20 -111 53 -111 73 0 5 4 7 9 3 5 -3 12 -1 15 4 3 5 -3 11
-15 14 -16 4 -19 11 -14 34 4 23 2 21 -12 -10 -10 -21 -22 -35 -27 -30 -5 4
-1 -7 8 -25 20 -39 16 -48 -12 -33 -28 15 -29 14 -36 -14 -9 -37 -34 -30 -27
8 1 5 -3 6 -9 2 -7 -4 -7 -12 0 -25 13 -23 30 -35 30 -20 0 6 4 8 10 5 5 -3 7
0 4 8 -3 8 0 18 7 23 8 4 10 3 5 -4 -4 -7 -2 -12 3 -12 6 0 11 4 11 9 0 5 9 7
20 4 22 -6 26 8 10 37 -11 21 -3 53 12 44 6 -4 5 -10 -3 -15 -11 -6 -9 -14 8
-37 16 -22 18 -33 11 -47 -7 -12 -7 -16 0 -11 5 3 13 -1 16 -10 3 -8 2 -13 -3
-10 -5 3 -25 -5 -44 -18 -19 -13 -38 -21 -42 -18 -3 4 -3 -2 1 -12 5 -14 4
-17 -4 -12 -18 11 -14 0 5 -15 11 -10 14 -10 9 -1 -4 6 -2 12 3 12 11 0 14 -9
14 -42 0 -9 5 -14 12 -12 7 3 20 -2 29 -11 15 -15 16 -15 16 5 0 12 -4 18 -10
15 -5 -3 -18 -1 -27 4 -10 6 -14 11 -10 11 4 0 3 9 -3 21 -7 11 -9 23 -6 26 3
3 10 -5 16 -19 6 -13 20 -25 31 -25 18 -2 17 0 -5 18 -36 28 -33 43 5 35 30
-6 31 -5 27 24 -7 47 16 56 31 13 10 -26 15 -32 22 -22 5 8 6 22 3 32 -3 11 0
17 9 17 21 0 86 -28 117 -52 20 -15 39 -19 65 -16 36 4 37 3 65 -53 18 -34 52
-78 88 -110 l59 -54 2 -120 c2 -129 4 -135 59 -135 23 0 32 5 34 18 0 9 2 22
3 27 2 6 3 31 4 57 1 47 1 47 27 37 19 -7 35 -6 55 3 34 15 37 24 10 33 -11 3
-25 13 -33 22 -11 15 -11 16 4 10 29 -11 19 6 -22 38 -33 25 -39 36 -40 68 l0
37 129 0 129 0 0 -166 c1 -146 -1 -166 -16 -171 -80 -25 -102 -48 -112 -117
-5 -38 -7 -41 -33 -38 -26 3 -27 1 -27 -37 l0 -41 433 0 c375 -1 430 -2 413
-15 -11 -9 -16 -20 -12 -31 5 -12 15 -15 49 -11 51 6 137 36 137 48 0 5 36 9
80 9 89 0 96 -7 59 -54 -16 -20 -19 -30 -10 -39 13 -13 66 2 66 20 0 6 4 15 9
20 5 5 6 3 2 -5 -4 -6 -3 -12 2 -12 12 0 43 35 37 42 -3 3 2 11 12 19 11 9 14
10 9 2 -4 -7 -3 -13 3 -13 5 0 13 5 16 10 4 6 60 10 136 10 l130 0 -3 37 c-2
25 -8 38 -18 38 -9 0 -17 15 -22 44 -4 24 -14 53 -21 65 -14 21 -13 21 25 18
27 -3 45 1 58 13 19 17 20 17 30 -11 19 -52 34 -75 67 -105 49 -42 93 -37 121
16 9 18 12 16 27 -23 21 -52 67 -92 106 -92 32 0 79 38 79 65 0 8 9 15 19 15
11 0 31 10 44 23 20 18 22 27 15 53 -8 31 -52 73 -101 95 -14 6 -28 22 -31 35
-11 41 -63 90 -110 104 -50 14 -78 8 -106 -22 -18 -19 -20 -19 -42 -3 l-23 17
26 -4 c14 -3 30 0 37 6 6 6 18 17 27 24 34 29 10 100 -52 151 -32 26 -34 31
-16 31 11 0 50 15 87 33 54 28 68 31 77 20 6 -7 8 -13 5 -13 -4 0 -2 -9 4 -20
14 -27 -4 -27 -32 0 -12 10 -25 17 -31 13 -12 -7 32 -42 54 -43 20 0 111 -48
122 -64 5 -6 6 2 2 19 -6 30 -6 30 10 7 9 -12 13 -27 10 -32 -3 -6 -1 -10 5
-10 6 0 9 -4 6 -9 -3 -5 1 -14 9 -21 8 -7 15 -19 15 -26 0 -8 5 -14 11 -14 12
0 3 76 -18 135 -17 51 -99 170 -130 190 -14 10 -23 25 -23 41 0 14 -5 34 -10
45 -8 15 -7 21 3 25 8 3 22 25 32 50 15 41 21 45 78 64 51 16 55 19 22 14 -22
-3 -48 -7 -58 -10 -14 -5 -11 7 16 68 63 136 89 164 127 135 8 -6 12 -7 8 -3
-4 5 -3 15 2 21 7 9 5 17 -7 26 -16 13 -17 12 -4 -3 7 -10 12 -18 10 -19 -41
-9 -46 -5 -46 33 0 21 3 38 6 38 4 0 20 -13 36 -30 16 -16 37 -30 46 -30 13 0
22 -13 30 -42 7 -24 19 -50 26 -58 13 -13 17 -12 36 13 12 16 41 48 64 70 42
41 69 92 55 101 -8 5 -105 -18 -122 -29 -6 -3 -10 4 -10 17 0 18 -20 38 -81
82 -45 33 -92 77 -106 98 l-26 38 21 47 c20 47 27 54 67 69 l20 7 -20 5 c-11
2 -32 15 -46 29 l-27 24 -6 -33z m-1393 -205 c-7 -2 -19 -2 -25 0 -7 3 -2 5
12 5 14 0 19 -2 13 -5z m-401 -95 c-7 -7 -12 -8 -12 -2 0 6 3 14 7 17 3 4 9 5
12 2 2 -3 -1 -11 -7 -17z m-526 -54 c-3 -8 -10 -12 -16 -9 -16 10 -12 -7 8
-28 16 -20 16 -20 -2 -13 -16 5 -17 4 -6 -9 7 -8 8 -15 2 -15 -5 0 -15 6 -22
14 -9 12 -7 25 11 63 16 34 23 43 26 30 3 -10 2 -25 -1 -33z m41 30 c-3 -3
-12 -4 -19 -1 -8 3 -5 6 6 6 11 1 17 -2 13 -5z m533 -14 c0 -5 -4 -10 -10 -10
-5 0 -10 5 -10 10 0 6 5 10 10 10 6 0 10 -4 10 -10z m-545 -10 c3 -5 1 -10 -4
-10 -6 0 -11 5 -11 10 0 6 2 10 4 10 3 0 8 -4 11 -10z m140 -13 c7 -6 10 -21
8 -32 -4 -15 -2 -16 5 -7 7 11 10 10 16 -3 9 -25 -1 -35 -36 -35 -26 0 -29 2
-18 15 10 12 9 15 -5 15 -13 0 -16 6 -13 30 2 16 0 32 -6 35 -6 2 0 2 13 -1
14 -4 30 -11 36 -17z m-68 -18 c-3 -10 -1 -22 4 -25 12 -7 1 -24 -15 -24 -17
0 -28 51 -14 67 14 17 31 5 25 -18z m-74 -6 c-5 -12 -2 -15 8 -11 10 4 15 -1
15 -12 0 -11 -9 -20 -23 -23 -19 -4 -21 -2 -11 10 10 12 8 17 -6 25 -15 8 -16
12 -5 19 21 13 29 11 22 -8z m1187 -44 c10 -6 -4 -8 -39 -7 -35 2 -56 8 -59
17 -3 10 5 12 39 6 24 -4 51 -11 59 -16z m-1247 -3 c7 -18 -46 -81 -83 -100
-28 -14 -29 -13 -20 4 6 11 16 17 23 14 8 -3 14 1 14 8 0 18 34 70 41 63 3 -3
0 -11 -6 -17 -7 -7 -12 -17 -12 -22 0 -6 7 -1 15 11 8 12 12 28 9 37 -3 9 -2
16 4 16 5 0 12 -6 15 -14z m1337 -33 l28 -16 -34 -24 c-19 -12 -37 -23 -39
-23 -3 0 -5 18 -5 40 0 44 8 48 50 23z m-297 -8 c12 -11 17 -12 20 -2 3 6 6 3
6 -8 1 -28 -10 -42 -42 -54 -24 -9 -27 -8 -33 14 -10 38 -24 19 -24 -32 0 -50
7 -49 -87 -15 l-52 19 32 30 c25 24 38 30 62 26 22 -3 36 1 49 16 22 25 49 27
69 6z m453 -168 c15 -34 29 -81 32 -106 5 -40 3 -44 -14 -36 -10 4 -30 10 -44
13 l-25 5 24 -26 c12 -14 20 -30 16 -36 -8 -14 1 -14 26 -1 16 9 19 7 19 -15
0 -36 -21 -115 -30 -115 -4 0 -6 -10 -3 -22 2 -13 7 -81 12 -153 7 -109 12
-138 34 -180 14 -27 35 -90 47 -139 18 -73 20 -90 8 -97 -11 -7 -10 -14 3 -38
24 -41 9 -62 -28 -39 -15 9 -29 26 -31 37 -2 12 -11 21 -21 21 -11 0 -17 9
-19 25 -1 13 -20 68 -43 122 -50 121 -55 134 -40 113 8 -11 11 -2 10 40 0 45
-2 51 -10 32 -5 -13 -6 -29 -2 -34 3 -7 1 -8 -5 -4 -6 4 -16 25 -22 46 -20 76
-44 39 -34 -51 9 -81 -5 -289 -19 -289 -7 0 -12 -16 -12 -37 0 -34 -3 -38 -27
-41 -22 -3 -26 0 -21 17 3 12 1 21 -6 21 -6 0 -11 11 -11 25 0 14 -5 25 -11
25 -8 0 -10 25 -5 87 4 49 7 120 8 158 0 46 3 63 9 50 6 -17 8 -16 8 9 1 21
-3 27 -14 22 -11 -4 -15 2 -15 27 0 21 3 28 9 19 11 -19 22 8 14 37 -3 12 9
61 26 111 34 93 34 135 3 126 -12 -3 -29 12 -55 46 -36 46 -40 49 -56 34 -10
-9 -21 -16 -25 -16 -4 0 -20 -9 -34 -21 -23 -18 -38 -20 -124 -18 l-97 3 -41
-47 c-28 -31 -50 -47 -65 -47 -37 0 -39 18 -5 46 35 30 34 42 -2 24 -21 -10
-20 -9 5 14 15 14 27 28 27 31 0 3 -21 5 -46 5 -39 0 -45 2 -35 14 8 9 43 16
99 20 48 3 101 8 117 10 17 1 42 4 56 4 27 2 68 27 58 36 -3 3 -23 -3 -44 -14
-22 -11 -46 -20 -55 -19 -8 0 -4 6 11 12 41 19 57 36 52 57 -3 12 3 23 17 32
30 18 70 101 58 122 -11 19 4 51 28 60 23 9 167 -78 231 -141 63 -61 69 -60
13 1 l-40 43 20 44 c11 24 20 53 20 64 0 34 85 -60 116 -128z m-161 66 c-8
-35 -9 -35 -29 -27 -19 7 -22 40 -3 47 30 13 39 7 32 -20z m-486 -138 c-29
-43 -49 -57 -49 -34 0 5 5 7 12 3 7 -5 8 -3 3 6 -5 8 -14 37 -21 66 -10 44
-10 56 3 73 14 21 15 20 48 -24 l35 -45 -31 -45z m71 105 c13 -8 12 -11 -5
-24 -18 -13 -21 -13 -32 1 -21 28 4 44 37 23z m1217 -25 c0 -8 -6 -16 -14 -19
-16 -7 -17 6 -1 22 15 15 15 15 15 -3z m-377 -41 c36 -13 73 -24 83 -24 31 0
18 -18 -46 -60 -29 -19 -36 -30 -31 -45 7 -25 8 -38 6 -97 -2 -36 -6 -48 -18
-48 -8 0 -13 4 -10 9 6 10 -24 25 -32 16 -3 -3 0 -5 6 -5 7 0 12 -4 12 -9 0
-6 -9 -9 -19 -8 -11 0 -18 4 -15 8 2 4 0 10 -5 14 -6 3 -8 37 -5 83 4 52 1 98
-9 140 -13 58 -13 63 2 56 9 -4 45 -18 81 -30z m-978 -22 c-7 -2 -12 -8 -12
-13 0 -6 4 -8 9 -4 5 3 13 0 17 -6 5 -8 3 -9 -6 -4 -10 6 -12 4 -7 -8 4 -10 1
-17 -6 -17 -9 0 -8 -3 1 -9 11 -6 9 -9 -6 -13 -18 -5 -20 -1 -17 33 2 20 6 48
10 60 7 21 8 21 18 4 7 -14 7 -20 -1 -23z m1338 -9 c0 -16 -2 -16 -11 -3 -9
12 -10 11 -6 -7 3 -13 1 -25 -3 -28 -5 -3 -11 7 -13 22 -4 26 -4 25 -6 -5 0
-19 -5 -31 -11 -27 -6 4 -7 -1 -3 -11 5 -13 3 -15 -8 -9 -11 6 -12 5 -2 -5 11
-12 15 -11 28 6 13 17 14 16 3 -15 -9 -29 -8 -36 6 -46 14 -10 6 -14 -46 -20
-35 -5 -66 -8 -70 -7 -3 1 -12 -5 -18 -13 -15 -18 -34 -20 -24 -2 3 6 -4 -1
-17 -16 -16 -18 -38 -30 -64 -34 l-40 -6 16 24 c9 13 20 23 25 22 12 -2 34 17
34 30 0 6 -7 2 -15 -9 -26 -35 -17 8 11 49 20 30 30 37 47 32 18 -5 19 -4 7 5
-13 9 -12 10 5 7 11 -2 19 -8 18 -15 -2 -7 4 -9 14 -5 11 4 14 3 9 -6 -4 -6
-4 -11 1 -10 26 4 34 -2 27 -23 -6 -23 -6 -22 18 2 23 24 28 47 7 34 -11 -6
-79 36 -79 49 0 10 18 9 25 -3 3 -5 16 -15 28 -21 21 -10 21 -9 -1 8 -22 18
-22 20 -7 33 14 11 20 12 38 1 18 -11 20 -11 9 0 -10 11 -8 16 10 26 33 18 58
16 58 -4z m-209 -28 c-3 -13 -16 -35 -28 -49 -13 -15 -23 -29 -23 -34 0 -4
-12 -25 -26 -47 -15 -22 -23 -31 -19 -20 4 13 3 16 -3 10 -6 -5 -12 -19 -15
-30 -3 -15 -5 -13 -6 8 0 16 4 37 9 47 7 13 7 21 0 25 -15 10 -12 28 4 22 11
-4 13 1 10 19 -4 20 2 27 31 41 19 9 35 19 35 23 0 3 9 6 19 7 15 1 18 -3 12
-22z m-1979 -2 c-12 -2 -20 -9 -17 -14 4 -5 2 -9 -4 -9 -13 0 -22 15 -14 24 3
3 18 5 32 5 24 -2 24 -2 3 -6z m2205 -19 c-3 -3 -12 -4 -19 -1 -8 3 -5 6 6 6
11 1 17 -2 13 -5z m-2437 -134 c0 -5 -4 -10 -10 -10 -5 0 -10 5 -10 10 0 6 5
10 10 10 6 0 10 -4 10 -10z m-10 -60 c0 -5 -2 -10 -4 -10 -3 0 -8 5 -11 10 -3
6 -1 10 4 10 6 0 11 -4 11 -10z m2134 -15 c-10 -8 -25 -15 -32 -15 -7 0 -11
-4 -8 -9 3 -5 -2 -15 -12 -22 -15 -12 -16 -12 -5 2 7 9 9 19 5 23 -10 10 27
36 52 36 20 0 20 0 0 -15z m479 -45 l22 -24 -22 18 c-14 11 -31 16 -44 13 -24
-7 -51 1 -44 13 10 16 66 3 88 -20z m-1596 -22 c-3 -8 -6 -5 -6 6 -1 11 2 17
5 13 3 -3 4 -12 1 -19z m1588 -2 c11 -7 24 -14 30 -14 12 -1 20 -22 7 -22 -5
0 -20 8 -33 19 -13 10 -31 21 -39 24 -13 5 -13 6 0 6 9 1 24 -5 35 -13z m-456
-22 c28 -23 29 -27 15 -41 -8 -9 -14 -24 -11 -33 3 -14 -4 -16 -44 -16 l-49 1
0 47 c0 34 5 50 18 57 26 16 38 13 71 -15z m458 -40 c2 -11 0 -13 -3 -6 -3 6
-10 10 -15 7 -17 -11 -49 16 -49 42 l0 26 33 -25 c17 -14 33 -34 34 -44z
m-652 36 c3 -5 -1 -10 -9 -10 -9 0 -16 5 -16 10 0 6 4 10 9 10 6 0 13 -4 16
-10z m719 -60 l7 -25 -15 25 c-17 28 -21 50 -7 35 5 -6 12 -21 15 -35z m-396
-156 l23 -7 -23 -11 c-16 -9 -25 -9 -30 -2 -17 25 -9 30 30 20z m-192 -151
c-7 -7 -26 7 -26 19 0 6 6 6 15 -2 9 -7 13 -15 11 -17z m-551 -212 c-2 -2 -11
3 -19 12 -8 8 -12 17 -9 21 3 3 12 -2 19 -12 7 -9 11 -19 9 -21z m-25 5 c0 -3
-4 -8 -10 -11 -5 -3 -10 -1 -10 4 0 6 5 11 10 11 6 0 10 -2 10 -4z m336 -34
c-17 -16 -18 -16 -5 5 7 12 15 20 18 17 3 -2 -3 -12 -13 -22z"/>
<path d="M856 1663 c-6 -14 -5 -15 5 -6 7 7 10 15 7 18 -3 3 -9 -2 -12 -12z"/>
<path d="M1748 1553 c7 -3 16 -2 19 1 4 3 -2 6 -13 5 -11 0 -14 -3 -6 -6z"/>
<path d="M2130 856 c0 -2 8 -10 18 -17 15 -13 16 -12 3 4 -13 16 -21 21 -21
13z"/>
<path d="M2141 804 c0 -11 3 -14 6 -6 3 7 2 16 -1 19 -3 4 -6 -2 -5 -13z"/>
<path d="M2459 1191 c-19 -21 -31 -61 -18 -61 5 0 9 7 9 16 0 9 5 12 13 8 6
-4 9 -4 5 1 -4 4 -3 16 3 27 14 26 7 32 -12 9z"/>
<path d="M2480 1145 c-7 -9 -8 -15 -2 -15 5 0 12 7 16 15 3 8 4 15 2 15 -2 0
-9 -7 -16 -15z"/>
<path d="M2590 1131 c0 -5 9 -7 20 -4 11 3 20 7 20 9 0 2 -9 4 -20 4 -11 0
-20 -4 -20 -9z"/>
<path d="M2615 1290 c-3 -5 -1 -10 4 -10 6 0 11 5 11 10 0 6 -2 10 -4 10 -3 0
-8 -4 -11 -10z"/>
<path d="M2990 970 c8 -5 20 -10 25 -10 6 0 3 5 -5 10 -8 5 -19 10 -25 10 -5
0 -3 -5 5 -10z"/>
<path d="M5396 2027 c-10 -8 -29 -12 -41 -9 -29 5 -71 -45 -80 -97 -7 -44 -3
-56 24 -71 14 -7 25 -5 42 9 13 10 38 22 56 25 68 15 113 78 94 129 -9 22 -17
27 -44 27 -18 0 -41 -6 -51 -13z m44 -1 c0 -2 -7 -7 -16 -10 -8 -3 -12 -2 -9
4 6 10 25 14 25 6z m-10 -60 c0 -2 -8 -10 -17 -17 -16 -13 -17 -12 -4 4 13 16
21 21 21 13z"/>
<path d="M3395 1980 c18 -104 52 -216 74 -250 114 -169 128 -183 200 -199 24
-5 57 -19 72 -30 24 -18 43 -21 116 -21 l88 0 14 30 c7 17 24 38 38 47 22 15
27 15 59 0 19 -10 56 -17 83 -17 44 0 57 6 127 58 44 33 85 66 93 75 10 13 17
14 33 6 12 -6 36 -9 55 -6 18 3 32 3 29 -1 -2 -4 25 -8 60 -8 46 -1 78 -8 117
-28 66 -32 69 -32 63 0 -7 39 -69 108 -154 171 l-77 57 -95 8 c-112 9 -167 -6
-231 -60 -42 -36 -107 -123 -159 -212 -17 -30 -44 -67 -58 -83 l-26 -27 -13
31 c-9 21 -10 36 -3 49 6 10 10 27 10 38 0 13 7 18 21 18 34 -1 63 45 55 87
-8 44 -48 87 -80 87 -30 0 -46 -25 -46 -74 0 -38 -5 -42 -30 -26 -13 8 -12 11
4 23 13 10 17 21 13 38 -5 18 -1 28 13 37 32 20 27 86 -9 123 -16 16 -39 29
-52 29 -12 0 -32 11 -45 25 -39 42 -104 30 -104 -20 0 -32 29 -65 74 -85 l41
-18 -45 1 c-43 2 -45 1 -48 -29 -2 -25 4 -37 38 -68 37 -34 39 -38 25 -53 -11
-10 -14 -25 -11 -39 11 -44 -9 -24 -62 60 -43 69 -71 100 -148 162 -52 43
-102 89 -110 103 l-15 26 6 -35z m1168 -194 c18 -8 43 -24 57 -35 l25 -20 -50
5 c-82 7 -85 8 -85 17 0 6 18 7 40 4 22 -3 40 -1 40 4 0 16 -52 22 -85 10 -48
-17 -64 -13 -36 9 28 24 50 25 94 6z m-94 -74 l20 -28 -47 0 c-50 1 -56 13
-25 48 18 20 25 18 52 -20z m47 9 c-3 -4 6 -6 20 -3 17 3 31 -2 46 -17 26 -28
20 -33 -30 -25 -29 4 -43 13 -51 30 -9 20 -8 24 5 24 8 0 13 -4 10 -9z m164
-43 l32 -43 -35 37 c-20 20 -38 34 -41 30 -3 -3 -6 0 -6 6 0 23 19 12 50 -30z
m6 -40 c4 -6 -7 -3 -24 8 -17 10 -34 24 -37 32 -5 15 50 -21 61 -40z"/>
<path d="M4421 1717 c-13 -21 -12 -21 5 -5 10 10 16 20 13 22 -3 3 -11 -5 -18
-17z"/>
<path d="M5715 1979 c-25 -12 -55 -63 -55 -94 0 -13 13 -37 29 -53 22 -21 29
-38 29 -63 -1 -19 -3 -28 -6 -21 -3 10 -7 10 -19 0 -8 -7 -25 -17 -36 -23 -22
-10 -50 -53 -62 -92 -5 -17 -2 -23 9 -23 24 0 20 -41 -9 -91 -14 -24 -25 -56
-25 -71 0 -23 -4 -28 -25 -28 -45 0 -73 -20 -83 -61 -8 -30 -7 -43 3 -52 7 -7
18 -51 25 -98 15 -99 45 -154 100 -181 34 -18 35 -19 35 -83 0 -36 -3 -65 -7
-65 -3 0 -9 -43 -13 -96 -6 -80 -5 -102 9 -131 9 -20 20 -33 23 -29 3 3 0 13
-7 21 -7 9 -14 35 -16 58 l-3 42 10 -35 c5 -19 14 -43 20 -53 5 -10 7 -27 4
-38 -4 -11 -2 -19 4 -19 7 0 11 27 11 70 l0 69 32 -17 c18 -9 37 -21 41 -27 5
-6 6 5 3 23 -5 31 -49 96 -60 90 -2 -2 -7 0 -10 3 -4 4 5 14 19 23 22 15 25
15 25 1 0 -10 -5 -13 -12 -9 -7 4 -8 3 -4 -4 15 -24 35 -10 50 35 9 26 16 48
16 50 0 11 -44 -1 -83 -21 -31 -17 -44 -20 -41 -11 6 16 82 55 106 55 14 0 15
5 6 34 -13 41 -38 38 -38 -4 0 -17 -7 -30 -17 -34 -10 -3 -24 -9 -32 -12 -9
-5 -11 -3 -6 6 5 9 4 11 -4 6 -6 -4 -9 -11 -6 -16 3 -5 1 -11 -5 -15 -11 -7
-12 31 -1 80 6 30 25 39 47 23 8 -6 11 -3 10 8 0 9 5 18 12 20 7 1 8 0 2 -3
-5 -2 -7 -10 -3 -16 4 -6 14 6 24 29 l18 39 0 -32 1 -33 20 20 c11 11 20 29
20 39 0 23 16 36 25 21 4 -6 10 -8 15 -5 5 3 12 0 16 -6 5 -8 3 -9 -7 -4 -12
7 -12 6 -1 -7 8 -9 20 -14 28 -11 17 6 17 11 3 51 -6 17 -9 37 -7 44 7 19 31
-30 39 -77 6 -36 7 -34 8 23 0 35 -4 95 -10 133 -10 64 -9 75 11 122 12 28 30
98 41 155 18 103 18 105 -1 142 -19 38 -73 90 -92 90 -6 0 -4 -10 5 -22 8 -13
20 -22 27 -20 8 2 8 -4 -1 -20 -6 -13 -13 -25 -15 -27 -3 -3 -27 82 -25 87 1
1 -5 10 -14 18 -19 19 -19 33 0 58 18 23 20 79 4 109 -32 61 -74 80 -124 56z
m25 -83 c0 -2 -7 -6 -15 -10 -8 -3 -15 -1 -15 4 0 6 7 10 15 10 8 0 15 -2 15
-4z m-15 -56 c-3 -5 -13 -10 -21 -10 -8 0 -14 5 -14 10 0 6 9 10 21 10 11 0
17 -4 14 -10z m48 -39 c-8 -10 -35 28 -28 39 5 8 11 4 19 -12 7 -12 11 -25 9
-27z m-106 -103 c-3 -8 -6 -5 -6 6 -1 11 2 17 5 13 3 -3 4 -12 1 -19z m71 -10
c6 -13 11 -17 11 -10 1 6 6 12 11 12 15 0 12 -36 -5 -50 -8 -7 -15 -20 -15
-28 0 -21 -16 -4 -23 23 -4 18 -5 18 -6 -2 -1 -28 -17 -30 -30 -4 -8 15 -7 20
5 25 10 4 14 14 11 26 -3 11 -1 18 4 14 5 -3 9 0 9 5 0 19 17 12 28 -11z
m-103 -15 l-18 -28 23 20 23 20 -8 -25 c-4 -14 -12 -32 -17 -40 -7 -12 -8 -11
-4 4 6 16 4 17 -9 6 -13 -10 -15 -9 -15 7 0 18 26 63 37 63 3 0 -3 -12 -12
-27z m283 -65 c-4 -29 -44 -33 -43 -4 0 27 14 48 26 41 5 -4 10 0 10 7 1 7 3
5 6 -4 2 -10 3 -28 1 -40z m42 -8 c0 -5 -2 -10 -4 -10 -3 0 -8 5 -11 10 -3 6
-1 10 4 10 6 0 11 -4 11 -10z m-330 -135 c0 -24 -5 -35 -15 -35 -15 0 -20 26
-9 54 11 28 24 17 24 -19z m157 13 c-3 -8 -6 -5 -6 6 -1 11 2 17 5 13 3 -3 4
-12 1 -19z m-17 -29 c0 -5 -4 -9 -8 -9 -5 0 -9 7 -9 15 0 8 4 12 9 9 4 -3 8
-9 8 -15z m-30 -9 c0 -5 -5 -10 -11 -10 -5 0 -7 5 -4 10 3 6 8 10 11 10 2 0 4
-4 4 -10z m37 -16 c-3 -3 -12 -4 -19 -1 -8 3 -5 6 6 6 11 1 17 -2 13 -5z m106
-156 c3 -13 9 -50 13 -83 l6 -60 -20 25 c-15 20 -20 39 -18 83 1 59 10 74 19
35z m-46 -23 c0 -8 -4 -15 -9 -15 -10 0 -11 14 -1 23 9 10 10 9 10 -8z m-97
-290 c0 -8 -2 -15 -4 -15 -2 0 -6 7 -10 15 -3 8 -1 15 4 15 6 0 10 -7 10 -15z
m4 -70 c-4 -8 -8 -15 -10 -15 -2 0 -4 7 -4 15 0 8 4 15 10 15 5 0 7 -7 4 -15z"/>
<path d="M5880 1619 c0 -5 5 -7 10 -4 6 3 10 8 10 11 0 2 -4 4 -10 4 -5 0 -10
-5 -10 -11z"/>
<path d="M5870 1190 c0 -5 5 -10 11 -10 5 0 7 5 4 10 -3 6 -8 10 -11 10 -2 0
-4 -4 -4 -10z"/>
<path d="M4977 1959 c-9 -5 -21 -7 -27 -4 -15 9 -70 -24 -81 -49 -8 -18 -7
-31 5 -54 9 -17 16 -39 16 -49 1 -17 1 -17 11 0 8 13 7 22 -3 34 -10 13 -10
17 0 20 6 3 12 11 12 18 0 12 68 43 79 36 7 -5 21 23 21 42 0 19 -7 21 -33 6z"/>
<path d="M4786 1721 c-3 -5 3 -11 13 -14 29 -7 44 -77 38 -171 -3 -43 -11 -83
-17 -90 -9 -8 -11 -6 -7 9 15 57 17 80 7 65 -5 -8 -10 -22 -10 -30 0 -18 -35
-51 -44 -43 -10 11 -6 -7 8 -35 22 -44 46 -166 46 -239 0 -57 4 -75 26 -107
46 -67 85 -166 100 -252 8 -45 21 -102 29 -125 13 -37 13 -51 -1 -133 -9 -50
-21 -95 -25 -101 -5 -5 -9 -29 -9 -55 l0 -45 87 -2 c66 -1 90 -5 99 -17 6 -9
25 -16 41 -16 16 0 54 -5 84 -11 94 -19 150 25 73 57 -40 17 -124 92 -124 112
0 7 -18 47 -39 90 l-39 78 16 78 c15 77 16 79 54 95 31 13 38 20 34 36 -18 74
-91 264 -130 336 -37 69 -48 101 -55 160 -8 75 -8 88 4 234 7 83 -3 135 -27
135 -10 0 -13 -26 -13 -103 0 -140 -4 -152 -59 -166 -25 -6 -48 -11 -53 -11
-4 0 -7 34 -5 76 3 55 -2 93 -17 145 -20 65 -23 69 -51 69 -16 0 -31 -4 -34
-9z m304 -1272 c0 -6 -4 -7 -10 -4 -5 3 -10 11 -10 16 0 6 5 7 10 4 6 -3 10
-11 10 -16z"/>
<path d="M5400 1710 c-51 -9 -64 -18 -49 -36 10 -12 -6 -13 -108 -8 -83 5
-122 4 -127 -4 -9 -15 41 -22 146 -19 47 1 90 -1 94 -5 4 -5 2 -19 -4 -34 -23
-48 22 -90 84 -78 27 5 39 14 52 40 15 33 15 35 -12 63 -22 22 -27 36 -22 54
7 30 -5 36 -54 27z"/>
<path d="M2458 1693 c7 -3 16 -2 19 1 4 3 -2 6 -13 5 -11 0 -14 -3 -6 -6z"/>
<path d="M2355 1675 c-39 -18 -22 -18 35 -1 31 10 37 15 20 15 -14 -1 -38 -7
-55 -14z"/>
<path d="M2521 1686 c2 -2 31 -6 64 -9 39 -4 50 -3 30 2 -31 9 -102 14 -94 7z"/>
<path d="M2918 1613 c7 -3 16 -2 19 1 4 3 -2 6 -13 5 -11 0 -14 -3 -6 -6z"/>
<path d="M4616 1545 c-16 -8 -44 -29 -62 -45 -19 -16 -46 -33 -59 -36 -33 -8
-31 -17 6 -31 30 -12 30 -13 28 -70 -2 -45 1 -57 12 -55 30 7 60 34 79 71 11
22 24 42 30 46 5 3 10 22 10 41 0 19 7 48 15 64 15 29 15 30 -7 30 -13 0 -36
-7 -52 -15z"/>
<path d="M1320 1523 c0 -4 5 -15 10 -23 8 -13 10 -13 10 2 0 9 -4 20 -10 23
-5 3 -10 3 -10 -2z"/>
<path d="M3413 1443 c32 -5 36 -23 5 -23 -13 0 -41 -3 -63 -6 -39 -5 -40 -5
-15 10 16 10 20 15 9 16 -8 0 -24 -6 -34 -14 -17 -12 -16 -14 16 -24 38 -12
157 -29 269 -37 186 -14 641 -2 793 21 188 29 -105 56 -588 54 -192 0 -366 1
-385 3 -19 2 -23 2 -7 0z"/>
<path d="M420 1373 c-8 -3 -30 -19 -48 -34 -18 -16 -37 -29 -41 -29 -5 0 -7
-9 -4 -20 5 -18 7 -18 30 -3 13 9 22 22 19 29 -13 33 79 60 121 35 14 -8 11
-10 -17 -6 -24 3 -28 2 -12 -3 13 -4 23 -10 23 -14 -2 -23 1 -27 20 -33 15 -5
20 -13 17 -29 -3 -13 0 -23 7 -23 22 0 4 54 -23 67 l-27 13 28 12 29 12 -29
11 c-40 16 -76 22 -93 15z m-60 -68 c-7 -9 -15 -13 -19 -10 -3 3 1 10 9 15 21
14 24 12 10 -5z"/>
<path d="M3140 1377 c0 -2 17 -21 37 -43 37 -39 36 -33 -1 19 -16 22 -36 36
-36 24z"/>
<path d="M2745 1360 c-16 -7 -17 -9 -3 -9 9 -1 20 4 23 9 7 11 7 11 -20 0z"/>
<path d="M3658 1343 c7 -3 16 -2 19 1 4 3 -2 6 -13 5 -11 0 -14 -3 -6 -6z"/>
<path d="M3698 1343 c7 -3 16 -2 19 1 4 3 -2 6 -13 5 -11 0 -14 -3 -6 -6z"/>
<path d="M3323 1333 c9 -2 23 -2 30 0 6 3 -1 5 -18 5 -16 0 -22 -2 -12 -5z"/>
<path d="M3134 1294 c-23 -121 47 -364 105 -364 57 0 52 187 -8 295 -23 42
-22 38 11 -60 27 -80 34 -157 18 -195 -7 -17 -18 -29 -24 -28 -6 2 -26 33 -44
68 -36 73 -57 193 -46 273 7 55 -2 64 -12 11z"/>
<path d="M3393 1323 c9 -2 23 -2 30 0 6 3 -1 5 -18 5 -16 0 -22 -2 -12 -5z"/>
<path d="M3448 1313 c7 -3 16 -2 19 1 4 3 -2 6 -13 5 -11 0 -14 -3 -6 -6z"/>
<path d="M3520 1289 c50 -23 90 -56 90 -75 0 -7 -10 -20 -22 -28 -12 -9 -18
-16 -12 -16 6 0 19 9 29 20 16 18 17 23 4 46 -13 25 -94 74 -121 74 -7 0 7
-10 32 -21z"/>
<path d="M284 1279 c-3 -6 -2 -15 3 -20 5 -5 9 -1 10 11 2 22 -2 25 -13 9z"/>
<path d="M3301 1202 c75 -83 149 -143 175 -142 5 1 -8 10 -30 21 -21 11 -81
64 -133 117 l-95 97 83 -93z"/>
<path d="M497 1261 c-4 -17 -3 -21 5 -13 5 5 8 16 6 23 -3 8 -7 3 -11 -10z"/>
<path d="M573 1254 c-12 -26 -12 -26 7 -9 11 10 17 22 14 26 -7 12 -7 12 -21
-17z"/>
<path d="M3264 1271 c4 -6 22 -18 39 -27 30 -14 31 -14 12 1 -30 25 -59 39
-51 26z"/>
<path d="M4690 1240 c-13 -9 -13 -11 0 -20 13 -9 13 -11 0 -19 -8 -6 -12 -13
-8 -16 3 -3 16 8 28 25 12 16 25 28 30 25 5 -3 11 -1 15 5 8 13 -45 13 -65 0z
m30 -4 c0 -3 -4 -8 -10 -11 -5 -3 -10 -1 -10 4 0 6 5 11 10 11 6 0 10 -2 10
-4z"/>
<path d="M460 1230 c-9 -6 -10 -10 -3 -10 6 0 15 5 18 10 8 12 4 12 -15 0z"/>
<path d="M3354 1216 c11 -9 24 -16 30 -16 12 0 7 5 -24 19 -24 11 -24 11 -6
-3z"/>
<path d="M3410 1190 c8 -5 20 -10 25 -10 6 0 3 5 -5 10 -8 5 -19 10 -25 10 -5
0 -3 -5 5 -10z"/>
<path d="M3513 1163 c9 -2 25 -2 35 0 9 3 1 5 -18 5 -19 0 -27 -2 -17 -5z"/>
<path d="M263 1090 c0 -30 2 -43 4 -27 2 15 2 39 0 55 -2 15 -4 2 -4 -28z"/>
<path d="M300 1054 c0 -13 18 -39 24 -34 2 3 -2 14 -10 24 -8 11 -14 16 -14
10z"/>
<path d="M3508 1053 c12 -2 32 -2 45 0 12 2 2 4 -23 4 -25 0 -35 -2 -22 -4z"/>
<path d="M3606 1036 c17 -8 43 -29 58 -47 15 -19 23 -24 17 -13 -14 30 -69 74
-89 74 -9 -1 -3 -7 14 -14z"/>
<path d="M277 1033 c-4 -3 -7 -16 -6 -27 0 -19 1 -19 10 3 10 24 8 36 -4 24z"/>
<path d="M5816 1008 c-3 -18 -10 -55 -16 -82 -6 -31 -7 -62 -1 -82 8 -28 7
-32 -7 -27 -9 4 -13 2 -9 -4 5 -7 0 -9 -12 -6 -24 6 -39 -16 -20 -31 8 -6 16
-29 17 -51 4 -50 31 -135 43 -135 13 0 11 14 -3 28 -10 10 -10 17 0 32 8 14 9
20 1 20 -6 0 -9 12 -6 28 2 15 2 21 0 14 -8 -23 -23 -1 -22 31 0 24 2 27 8 14
8 -21 21 -21 39 2 10 14 11 12 4 -9 -4 -14 -7 -41 -6 -60 0 -19 -4 -41 -9 -47
-6 -9 -6 -13 2 -13 6 0 13 11 17 25 3 14 10 22 15 19 5 -3 9 3 9 13 0 10 4 14
8 8 14 -20 35 -17 29 5 -3 11 -1 18 4 14 5 -3 9 -12 9 -20 0 -8 6 -14 13 -14
8 0 14 -6 14 -14 0 -8 -3 -14 -7 -13 -11 3 -75 -57 -75 -70 0 -7 -4 -13 -9
-12 -5 0 -14 -10 -20 -22 -6 -12 -17 -24 -25 -27 -8 -3 -11 0 -7 7 4 6 3 11
-3 11 -5 0 -12 -6 -14 -12 -4 -10 -6 -9 -6 1 -1 11 -4 11 -17 0 -13 -11 -14
-9 -8 17 7 32 24 56 24 35 0 -7 5 -9 11 -5 6 3 -7 16 -31 30 -23 13 -43 24
-44 24 -1 0 0 -18 2 -39 3 -32 0 -41 -18 -51 -13 -7 -20 -8 -16 -2 7 12 -42
62 -60 62 -6 0 -14 -19 -18 -42 -8 -49 8 -68 57 -68 28 0 29 -1 24 -36 -3 -20
-7 -37 -9 -38 -2 0 -22 -11 -45 -24 -23 -12 -49 -22 -57 -22 -22 0 -20 -27 2
-34 9 -3 51 -4 92 -1 41 2 78 5 83 5 11 0 8 45 -4 57 -6 6 -8 25 -4 46 7 36 7
36 58 35 45 -1 53 2 79 31 22 24 32 30 42 22 7 -6 15 -10 17 -8 2 1 3 0 1 -2
-1 -3 5 -15 14 -29 15 -23 14 -28 -10 -82 -14 -32 -26 -60 -26 -64 0 -9 43 -7
58 3 14 8 82 135 82 152 0 5 -11 14 -24 19 -14 5 -37 29 -51 55 l-27 45 21 36
c12 19 21 40 21 46 0 6 -25 34 -56 62 l-55 51 10 85 c15 114 14 118 -11 125
-13 4 -30 9 -39 11 -12 3 -18 -4 -23 -28z m28 -12 c2 -14 -1 -26 -5 -26 -5 0
-9 -13 -9 -30 0 -16 -4 -30 -9 -30 -9 0 -9 30 3 83 9 42 16 43 20 3z m43 -17
c2 -28 1 -31 -7 -14 -9 17 -10 17 -7 -7 2 -15 0 -25 -4 -22 -5 3 -9 23 -9 45
0 51 24 49 27 -2z m-117 -183 c0 -3 -4 -8 -10 -11 -5 -3 -10 -1 -10 4 0 6 5
11 10 11 6 0 10 -2 10 -4z m199 -102 c-16 -20 -37 -6 -32 21 5 22 6 22 24 7
13 -11 15 -19 8 -28z m-227 -125 c-2 -13 -11 -30 -20 -36 -23 -18 -36 -16 -18
3 9 8 16 27 16 41 0 15 5 23 13 20 6 -2 11 -15 9 -28z m-101 0 c23 -27 15 -53
-12 -38 -10 5 -19 15 -18 22 0 9 2 9 6 0 2 -7 12 -13 21 -13 10 0 13 3 7 8
-17 12 -38 42 -30 42 4 0 16 -9 26 -21z"/>
<path d="M5771 1023 c-1 -6 -4 -20 -7 -30 -5 -17 -5 -17 6 0 6 10 9 23 6 30
-3 9 -5 9 -5 0z"/>
<path d="M340 1009 c0 -5 -4 -8 -9 -5 -5 3 -11 -3 -14 -13 -3 -14 0 -17 14
-14 23 6 24 -5 2 -29 -15 -17 -15 -18 6 -18 28 0 23 -22 -6 -30 -16 -4 -18
-10 -12 -25 6 -17 8 -17 8 -2 1 9 5 17 11 17 5 0 7 -8 3 -17 -5 -14 -3 -15 7
-6 7 6 13 25 15 42 1 17 8 38 16 48 13 16 12 17 -2 5 -14 -11 -18 -9 -24 10
-4 13 -6 29 -6 36 1 6 -1 12 -4 12 -3 0 -5 -5 -5 -11z"/>
<path d="M434 968 c-15 -18 -15 -20 -2 -9 15 11 20 10 33 -3 24 -24 31 -19 9
7 -10 12 -19 23 -20 25 0 1 -9 -8 -20 -20z"/>
<path d="M490 970 c0 -6 5 -10 10 -10 6 0 10 -6 9 -12 -1 -7 0 -20 4 -28 3 -8
10 -37 15 -65 6 -27 13 -60 17 -72 5 -15 3 -23 -4 -23 -6 0 -11 8 -12 18 0 14
-2 14 -9 -3 -5 -11 -9 -14 -9 -7 -1 9 -8 11 -20 7 -11 -3 -22 -1 -26 5 -3 5
-1 10 5 10 6 0 8 5 5 10 -4 6 -12 4 -21 -5 -12 -11 -20 -12 -35 -5 -22 12 -24
21 -6 39 8 9 8 12 0 7 -6 -3 -13 -3 -16 1 -2 5 -2 3 -1 -4 2 -6 -6 -11 -17
-10 -21 1 -26 23 -6 30 9 4 9 6 -1 6 -7 1 -15 -6 -18 -14 -5 -13 -9 -13 -35 1
-16 8 -29 10 -29 5 0 -5 11 -12 25 -15 24 -6 25 -10 25 -74 0 -48 8 -91 26
-143 21 -60 25 -84 20 -130 -5 -45 -4 -58 8 -62 26 -10 190 5 206 19 8 7 42
14 75 16 48 2 60 7 63 21 3 13 -3 17 -23 17 -44 0 -90 28 -113 68 -21 38 -47
156 -38 171 3 4 -3 35 -13 69 -11 34 -22 84 -26 111 -4 28 -13 52 -21 55 -8 3
-14 1 -14 -4z m-25 -227 c3 -21 22 -77 42 -126 23 -58 33 -95 29 -112 -8 -31
-17 -31 -45 -1 -30 32 -51 115 -51 204 0 77 13 96 25 35z"/>
<path d="M5670 960 c0 -12 7 -20 18 -20 13 0 14 2 3 9 -7 5 -10 14 -7 20 4 6
2 11 -3 11 -6 0 -11 -9 -11 -20z"/>
<path d="M385 941 c-3 -5 0 -13 6 -17 7 -4 9 -3 5 4 -3 5 0 13 6 15 9 4 10 6
1 6 -6 1 -14 -3 -18 -8z"/>
<path d="M416 932 c-3 -5 1 -9 9 -9 8 0 12 4 9 9 -3 4 -7 8 -9 8 -2 0 -6 -4
-9 -8z"/>
<path d="M486 905 c-9 -26 -7 -32 5 -12 6 10 9 21 6 23 -2 3 -7 -2 -11 -11z"/>
<path d="M3726 888 c10 -14 21 -24 23 -22 3 3 -6 15 -18 27 l-24 22 19 -27z"/>
<path d="M378 883 c7 -3 16 -2 19 1 4 3 -2 6 -13 5 -11 0 -14 -3 -6 -6z"/>
<path d="M490 851 c0 -6 4 -13 10 -16 6 -3 7 1 4 9 -7 18 -14 21 -14 7z"/>
<path d="M846 838 c10 -14 21 -24 23 -22 3 3 -6 15 -18 27 l-24 22 19 -27z"/>
<path d="M5772 840 c-8 -13 -8 -20 -2 -20 6 0 13 7 17 15 9 24 -1 27 -15 5z"/>
<path d="M5691 694 c13 -14 33 -30 44 -36 11 -5 3 6 -18 26 -44 42 -62 48 -26
10z"/>
<path d="M5831 611 c-1 -8 -9 -23 -18 -33 -16 -18 -16 -18 0 -12 9 3 17 11 17
18 0 6 5 4 10 -4 12 -18 12 -2 0 25 -5 12 -9 14 -9 6z"/>
<path d="M4498 472 c-38 -1 -68 -5 -68 -8 0 -3 7 -18 16 -34 25 -40 65 -60
125 -60 49 0 51 1 36 18 -8 9 -17 32 -19 51 -3 39 0 38 -90 33z"/>
<path d="M4660 407 c0 -13 6 -31 13 -40 10 -15 17 -16 45 -6 l33 11 -28 15
c-15 8 -32 21 -36 29 -12 22 -27 17 -27 -9z"/>
<path d="M4580 335 c-7 -14 -10 -28 -7 -32 4 -3 33 -8 65 -10 l57 -4 -37 35
c-45 43 -60 45 -78 11z"/>
</g>
</svg>
